<svg width="24" height="25" viewBox="0 0 24 25" fill="none" xmlns="http://www.w3.org/2000/svg">
<path d="M10.775 20.3125L9.35 18.9875C7.56667 17.3709 5.97933 15.7832 4.588 14.2245C3.196 12.6665 2.5 10.9959 2.5 9.21252C2.5 7.79586 2.97933 6.60819 3.938 5.64952C4.896 4.69152 6.08333 4.21252 7.5 4.21252C8.3 4.21252 9.096 4.39986 9.888 4.77452C10.6793 5.14986 11.3833 5.75419 12 6.58752C12.6167 5.75419 13.321 5.14986 14.113 4.77452C14.9043 4.39986 15.7 4.21252 16.5 4.21252C17.9167 4.21252 19.104 4.69152 20.062 5.64952C21.0207 6.60819 21.5 7.79586 21.5 9.21252C21.5 11.0125 20.7917 12.6999 19.375 14.2745C17.9583 15.8499 16.375 17.4292 14.625 19.0125L13.225 20.2875C12.875 20.6209 12.4667 20.7875 12 20.7875C11.5333 20.7875 11.125 20.6292 10.775 20.3125ZM11.275 8.11252C10.7417 7.27919 10.175 6.67086 9.575 6.28752C8.975 5.90419 8.28333 5.71252 7.5 5.71252C6.5 5.71252 5.66667 6.04586 5 6.71252C4.33333 7.37919 4 8.21252 4 9.21252C4 10.0125 4.25833 10.8499 4.775 11.7245C5.29167 12.5999 5.94167 13.4709 6.725 14.3375C7.50833 15.2042 8.354 16.0499 9.262 16.8745C10.1707 17.6999 11.0167 18.4709 11.8 19.1875C11.85 19.2375 11.9167 19.2625 12 19.2625C12.0833 19.2625 12.15 19.2375 12.2 19.1875C12.9833 18.4709 13.8293 17.6999 14.738 16.8745C15.646 16.0499 16.4917 15.2042 17.275 14.3375C18.0583 13.4709 18.7083 12.5999 19.225 11.7245C19.7417 10.8499 20 10.0125 20 9.21252C20 8.21252 19.6667 7.37919 19 6.71252C18.3333 6.04586 17.5 5.71252 16.5 5.71252C15.7167 5.71252 15.025 5.90419 14.425 6.28752C13.825 6.67086 13.2583 7.27919 12.725 8.11252C12.6417 8.22919 12.5333 8.32086 12.4 8.38752C12.2667 8.45419 12.1333 8.48752 12 8.48752C11.8667 8.48752 11.7333 8.45419 11.6 8.38752C11.4667 8.32086 11.3583 8.22919 11.275 8.11252Z" fill="#1C1B1F"/>
</svg>
