<svg width="24" height="25" viewBox="0 0 24 25" fill="none" xmlns="http://www.w3.org/2000/svg">
<path d="M10.8395 20.065L9.48947 18.784C7.8 17.221 6.29621 15.6861 4.97811 14.1793C3.65937 12.673 3 11.0579 3 9.33384C3 7.96425 3.45411 6.81605 4.36232 5.88924C5.26989 4.96308 6.39474 4.5 7.73684 4.5C8.49474 4.5 9.24884 4.68111 9.99916 5.04332C10.7488 5.40618 11.4158 5.99043 12 6.79607C12.5842 5.99043 13.2515 5.40618 14.0018 5.04332C14.7515 4.68111 15.5053 4.5 16.2632 4.5C17.6053 4.5 18.7301 4.96308 19.6377 5.88924C20.5459 6.81605 21 7.96425 21 9.33384C21 11.074 20.3289 12.7053 18.9868 14.2276C17.6447 15.7506 16.1447 17.2774 14.4868 18.8082L13.1605 20.0408C12.8289 20.3469 12.4421 20.5 12 20.5C11.5579 20.5 11.1711 20.355 10.8395 20.065Z" fill="#1C1B1F"/>
</svg>
